<svg xmlns="http://www.w3.org/2000/svg" xmlns:xlink="http://www.w3.org/1999/xlink" width="1366" zoomAndPan="magnify" viewBox="0 0 1024.5 576" height="768" preserveAspectRatio="xMidYMid meet" version="1.0"><defs><filter x="0%" y="0%" width="100%" height="100%" id="07297ffd73"><feColorMatrix values="0 0 0 0 1 0 0 0 0 1 0 0 0 0 1 0 0 0 1 0" color-interpolation-filters="sRGB"/></filter><clipPath id="bb889f8594"><path d="M 0 0.140625 L 231 0.140625 L 231 231 L 0 231 Z M 0 0.140625 " clip-rule="nonzero"/></clipPath><mask id="e65b9b84da"><g filter="url(#07297ffd73)"><rect x="-102.45" width="1229.4" fill="#000000" y="-57.6" height="691.2" fill-opacity="0.1"/></g></mask><clipPath id="3b8a84353b"><path d="M 0 0.140625 L 230.136719 0.140625 L 230.136719 230.277344 L 0 230.277344 Z M 0 0.140625 " clip-rule="nonzero"/></clipPath><clipPath id="7db5794de9"><rect x="0" width="231" y="0" height="231"/></clipPath><mask id="b80ce9077a"><g filter="url(#07297ffd73)"><rect x="-102.45" width="1229.4" fill="#000000" y="-57.6" height="691.2" fill-opacity="0.1"/></g></mask><clipPath id="b3ee4a2757"><path d="M 0.710938 0.367188 L 230.851562 0.367188 L 230.851562 230.503906 L 0.710938 230.503906 Z M 0.710938 0.367188 " clip-rule="nonzero"/></clipPath><clipPath id="8000d7c455"><rect x="0" width="231" y="0" height="231"/></clipPath><mask id="257ce212ce"><g filter="url(#07297ffd73)"><rect x="-102.45" width="1229.4" fill="#000000" y="-57.6" height="691.2" fill-opacity="0.1"/></g></mask><clipPath id="55c10fe627"><path d="M 0.527344 0.949219 L 108.472656 0.949219 L 108.472656 108.898438 L 0.527344 108.898438 Z M 0.527344 0.949219 " clip-rule="nonzero"/></clipPath><clipPath id="559709d9be"><rect x="0" width="109" y="0" height="110"/></clipPath><mask id="a84298cbfa"><g filter="url(#07297ffd73)"><rect x="-102.45" width="1229.4" fill="#000000" y="-57.6" height="691.2" fill-opacity="0.1"/></g></mask><clipPath id="70847b8cea"><path d="M 0 0.941406 L 56.972656 0.941406 L 56.972656 57.914062 L 0 57.914062 Z M 0 0.941406 " clip-rule="nonzero"/></clipPath><clipPath id="51c51689b6"><rect x="0" width="58" y="0" height="59"/></clipPath><mask id="176f3c334d"><g filter="url(#07297ffd73)"><rect x="-102.45" width="1229.4" fill="#000000" y="-57.6" height="691.2" fill-opacity="0.1"/></g></mask><clipPath id="3be6d77725"><path d="M 0.351562 0.570312 L 40.082031 0.570312 L 40.082031 40.300781 L 0.351562 40.300781 Z M 0.351562 0.570312 " clip-rule="nonzero"/></clipPath><clipPath id="9a86cd17d9"><rect x="0" width="41" y="0" height="41"/></clipPath><mask id="d2b7c1b07f"><g filter="url(#07297ffd73)"><rect x="-102.45" width="1229.4" fill="#000000" y="-57.6" height="691.2" fill-opacity="0.1"/></g></mask><clipPath id="ad36987e7d"><path d="M 0.550781 0.273438 L 30.53125 0.273438 L 30.53125 30.109375 L 0.550781 30.109375 Z M 0.550781 0.273438 " clip-rule="nonzero"/></clipPath><clipPath id="7d634e0121"><rect x="0" width="31" y="0" height="31"/></clipPath><mask id="2a95bd5de0"><g filter="url(#07297ffd73)"><rect x="-102.45" width="1229.4" fill="#000000" y="-57.6" height="691.2" fill-opacity="0.1"/></g></mask><clipPath id="138e8f2edc"><path d="M 0.710938 0.515625 L 81.671875 0.515625 L 81.671875 81.476562 L 0.710938 81.476562 Z M 0.710938 0.515625 " clip-rule="nonzero"/></clipPath><clipPath id="4e96a8205f"><rect x="0" width="82" y="0" height="82"/></clipPath><clipPath id="7399155649"><path d="M 631 0.140625 L 740 0.140625 L 740 109 L 631 109 Z M 631 0.140625 " clip-rule="nonzero"/></clipPath><mask id="d2b28e5f9c"><g filter="url(#07297ffd73)"><rect x="-102.45" width="1229.4" fill="#000000" y="-57.6" height="691.2" fill-opacity="0.1"/></g></mask><clipPath id="5189c60108"><path d="M 0.320312 0.140625 L 108.265625 0.140625 L 108.265625 108.085938 L 0.320312 108.085938 Z M 0.320312 0.140625 " clip-rule="nonzero"/></clipPath><clipPath id="0b645718a3"><rect x="0" width="109" y="0" height="109"/></clipPath><mask id="526d0d852c"><g filter="url(#07297ffd73)"><rect x="-102.45" width="1229.4" fill="#000000" y="-57.6" height="691.2" fill-opacity="0.1"/></g></mask><clipPath id="087bbfa38c"><path d="M 0.855469 0.867188 L 41.214844 0.867188 L 41.214844 41.261719 L 0.855469 41.261719 Z M 0.855469 0.867188 " clip-rule="nonzero"/></clipPath><clipPath id="2c5f338da7"><rect x="0" width="42" y="0" height="42"/></clipPath><mask id="456f461895"><g filter="url(#07297ffd73)"><rect x="-102.45" width="1229.4" fill="#000000" y="-57.6" height="691.2" fill-opacity="0.1"/></g></mask><clipPath id="44cfedccda"><path d="M 0.824219 0.359375 L 30 0.359375 L 30 29.503906 L 0.824219 29.503906 Z M 0.824219 0.359375 " clip-rule="nonzero"/></clipPath><clipPath id="12085f3933"><rect x="0" width="31" y="0" height="30"/></clipPath><mask id="66c5b00afd"><g filter="url(#07297ffd73)"><rect x="-102.45" width="1229.4" fill="#000000" y="-57.6" height="691.2" fill-opacity="0.15"/></g></mask><clipPath id="e411b944c1"><path d="M 1.109375 0.429688 L 45 0.429688 L 45 44.328125 L 1.109375 44.328125 Z M 1.109375 0.429688 " clip-rule="nonzero"/></clipPath><clipPath id="11cf1f954d"><rect x="0" width="45" y="0" height="45"/></clipPath></defs><g clip-path="url(#bb889f8594)"><g mask="url(#e65b9b84da)"><g transform="matrix(1, 0, 0, 1, 0, 0.000000000000055289)"><g clip-path="url(#7db5794de9)"><g clip-path="url(#3b8a84353b)"><path fill="#d9d9d9" d="M 115.140625 0.140625 C 51.648438 0.140625 0 51.789062 0 115.28125 C 0 178.769531 51.648438 230.417969 115.140625 230.417969 C 178.628906 230.417969 230.277344 178.769531 230.277344 115.28125 C 230.277344 51.789062 178.628906 0.140625 115.140625 0.140625 " fill-opacity="1" fill-rule="nonzero"/></g></g></g></g></g><g mask="url(#b80ce9077a)"><g transform="matrix(1, 0, 0, 1, 793, 1)"><g clip-path="url(#8000d7c455)"><g clip-path="url(#b3ee4a2757)"><path fill="#d9d9d9" d="M 115.851562 0.367188 C 52.363281 0.367188 0.710938 52.015625 0.710938 115.507812 C 0.710938 178.996094 52.363281 230.644531 115.851562 230.644531 C 179.34375 230.644531 230.992188 178.996094 230.992188 115.507812 C 230.992188 52.015625 179.34375 0.367188 115.851562 0.367188 " fill-opacity="1" fill-rule="nonzero"/></g></g></g></g><g mask="url(#257ce212ce)"><g transform="matrix(1, 0, 0, 1, 104, 249)"><g clip-path="url(#559709d9be)"><g clip-path="url(#55c10fe627)"><path fill="#d9d9d9" d="M 54.617188 0.949219 C 24.789062 0.949219 0.527344 25.214844 0.527344 55.042969 C 0.527344 84.867188 24.789062 109.132812 54.617188 109.132812 C 84.445312 109.132812 108.707031 84.867188 108.707031 55.042969 C 108.707031 25.214844 84.445312 0.949219 54.617188 0.949219 " fill-opacity="1" fill-rule="nonzero"/></g></g></g></g><g mask="url(#a84298cbfa)"><g transform="matrix(1, 0, 0, 1, 0, 246)"><g clip-path="url(#51c51689b6)"><g clip-path="url(#70847b8cea)"><path fill="#d9d9d9" d="M 28.550781 0.941406 C 12.808594 0.941406 0 13.746094 0 29.492188 C 0 45.234375 12.808594 58.042969 28.550781 58.042969 C 44.292969 58.042969 57.101562 45.234375 57.101562 29.492188 C 57.101562 13.746094 44.292969 0.941406 28.550781 0.941406 " fill-opacity="1" fill-rule="nonzero"/></g></g></g></g><g mask="url(#176f3c334d)"><g transform="matrix(1, 0, 0, 1, 75, 386)"><g clip-path="url(#9a86cd17d9)"><g clip-path="url(#3be6d77725)"><path fill="#d9d9d9" d="M 20.246094 0.570312 C 9.273438 0.570312 0.351562 9.496094 0.351562 20.464844 C 0.351562 31.4375 9.273438 40.359375 20.246094 40.359375 C 31.214844 40.359375 40.140625 31.4375 40.140625 20.464844 C 40.140625 9.496094 31.214844 0.570312 20.246094 0.570312 " fill-opacity="1" fill-rule="nonzero"/></g></g></g></g><g mask="url(#d2b7c1b07f)"><g transform="matrix(1, 0, 0, 1, 28, 445)"><g clip-path="url(#7d634e0121)"><g clip-path="url(#ad36987e7d)"><path fill="#d9d9d9" d="M 15.433594 0.273438 C 7.226562 0.273438 0.550781 6.949219 0.550781 15.15625 C 0.550781 23.363281 7.226562 30.039062 15.433594 30.039062 C 23.640625 30.039062 30.3125 23.363281 30.3125 15.15625 C 30.3125 6.949219 23.640625 0.273438 15.433594 0.273438 " fill-opacity="1" fill-rule="nonzero"/></g></g></g></g><g mask="url(#2a95bd5de0)"><g transform="matrix(1, 0, 0, 1, 793, 263)"><g clip-path="url(#4e96a8205f)"><g clip-path="url(#138e8f2edc)"><path fill="#d9d9d9" d="M 41.234375 0.515625 C 18.890625 0.515625 0.710938 18.695312 0.710938 41.039062 C 0.710938 63.382812 18.890625 81.558594 41.234375 81.558594 C 63.578125 81.558594 81.753906 63.382812 81.753906 41.039062 C 81.753906 18.695312 63.578125 0.515625 41.234375 0.515625 " fill-opacity="1" fill-rule="nonzero"/></g></g></g></g><g clip-path="url(#7399155649)"><g mask="url(#d2b28e5f9c)"><g transform="matrix(1, 0, 0, 1, 631, 0.000000000000055289)"><g clip-path="url(#0b645718a3)"><g clip-path="url(#5189c60108)"><path fill="#d9d9d9" d="M 54.410156 0.140625 C 24.582031 0.140625 0.320312 24.40625 0.320312 54.230469 C 0.320312 84.058594 24.582031 108.320312 54.410156 108.320312 C 84.238281 108.320312 108.5 84.058594 108.5 54.230469 C 108.5 24.40625 84.238281 0.140625 54.410156 0.140625 " fill-opacity="1" fill-rule="nonzero"/></g></g></g></g></g><g mask="url(#526d0d852c)"><g transform="matrix(1, 0, 0, 1, 908, 288)"><g clip-path="url(#2c5f338da7)"><g clip-path="url(#087bbfa38c)"><path fill="#d9d9d9" d="M 20.933594 0.867188 C 9.863281 0.867188 0.855469 9.875 0.855469 20.945312 C 0.855469 32.015625 9.863281 41.019531 20.933594 41.019531 C 32.003906 41.019531 41.007812 32.015625 41.007812 20.945312 C 41.007812 9.875 32.003906 0.867188 20.933594 0.867188 " fill-opacity="1" fill-rule="nonzero"/></g></g></g></g><g mask="url(#456f461895)"><g transform="matrix(1, 0, 0, 1, 899, 377)"><g clip-path="url(#12085f3933)"><g clip-path="url(#44cfedccda)"><path fill="#d9d9d9" d="M 15.378906 0.359375 C 7.351562 0.359375 0.824219 6.886719 0.824219 14.910156 C 0.824219 22.9375 7.351562 29.464844 15.378906 29.464844 C 23.402344 29.464844 29.929688 22.9375 29.929688 14.910156 C 29.929688 6.886719 23.402344 0.359375 15.378906 0.359375 " fill-opacity="1" fill-rule="nonzero"/></g></g></g></g><g mask="url(#66c5b00afd)"><g transform="matrix(1, 0, 0, 1, 979, 230)"><g clip-path="url(#11cf1f954d)"><g clip-path="url(#e411b944c1)"><path fill="#d9d9d9" d="M 23.054688 0.429688 C 10.953125 0.429688 1.109375 10.273438 1.109375 22.371094 C 1.109375 34.472656 10.953125 44.316406 23.054688 44.316406 C 35.152344 44.316406 44.996094 34.472656 44.996094 22.371094 C 44.996094 10.273438 35.152344 0.429688 23.054688 0.429688 " fill-opacity="1" fill-rule="nonzero"/></g></g></g></g></svg>